<svg id="Layer_1" data-name="Layer 1" xmlns="http://www.w3.org/2000/svg" viewBox="0 0 386.13 131.61">
  <defs>
    <style>
      .cls-1 {
        fill: #ff6350;
      }

      .cls-2 {
        fill: #fff;
      }
    </style>
  </defs>
  <g>
    <path class="cls-1" d="M194.68,154.17q0-14.7,9.83-24.32t25.07-9.63q15.1,0,24.93,9.63,10,9.63,10,24.32t-10,24.33q-9.82,9.63-24.93,9.63t-25.07-9.63Q194.67,168.89,194.68,154.17Zm12.74,0q0,10.29,6.37,16.66a22.76,22.76,0,0,0,31.58,0q6.38-6.37,6.37-16.66t-6.37-16.52a22.43,22.43,0,0,0-31.58,0Q207.42,144,207.42,154.17Z" transform="translate(-84.32 -60.13)"/>
    <path class="cls-1" d="M272.24,154.17q0-14.7,9.84-24.32t25.07-9.63q15.09,0,24.93,9.63t10,24.32q0,14.84-10,24.33t-24.93,9.63q-15.11,0-25.07-9.63T272.24,154.17Zm12.75,0q0,10.29,6.37,16.66a22.76,22.76,0,0,0,31.58,0q6.36-6.37,6.37-16.66t-6.37-16.52a22.43,22.43,0,0,0-31.58,0Q285,144,285,154.17Z" transform="translate(-84.32 -60.13)"/>
    <path class="cls-1" d="M412.69,186.05H397.32L376.13,156l-10.39,9.62v20.43H353V92.9h12.75v57.37l29.36-28h16.34v.52L385,147.54l27.7,38Z" transform="translate(-84.32 -60.13)"/>
    <path class="cls-1" d="M470.45,168.36q0,8.32-7.76,14t-19.53,5.72a32.43,32.43,0,0,1-18-5,27.89,27.89,0,0,1-11.08-13.2l11.35-4.56a20.06,20.06,0,0,0,7.27,8.92,18.5,18.5,0,0,0,10.46,3.18A19.34,19.34,0,0,0,453.34,175c2.72-1.65,4.09-3.6,4.09-5.85q0-6.12-10-9l-11.64-2.73q-19.8-4.69-19.81-18,0-8.72,7.55-14t19.32-5.27a33,33,0,0,1,16.28,4,22.42,22.42,0,0,1,10.18,10.8L458,139.47a13.84,13.84,0,0,0-6.3-6.31,20.86,20.86,0,0,0-9.76-2.27,17.19,17.19,0,0,0-8.94,2.34q-3.94,2.34-4,5.72,0,5.48,11,7.81l10.25,2.47Q470.45,153.91,470.45,168.36Z" transform="translate(-84.32 -60.13)"/>
    <path class="cls-1" d="M144.47,105a51.39,51.39,0,0,0-8.59-1.24h-.27v88h.27c25.17-1.52,45.08-20.62,45.08-44C181,127.13,165.44,109.82,144.47,105Zm0,70.48V120c12.46,0,22.57,12.42,22.57,27.74S156.93,175.49,144.47,175.49ZM84.32,147.75c0,23.28,19.76,42.32,44.81,44V103.79a51.56,51.56,0,0,0-8,1.15C100,109.66,84.32,127,84.32,147.75Zm36.77,27.64c-12.47,0-22.57-12.42-22.57-27.75s10.1-27.74,22.57-27.74Z" transform="translate(-84.32 -60.13)"/>
    <path class="cls-2" d="M121.09,119.9a18.71,18.71,0,0,1,8,1.82v51.85a18.71,18.71,0,0,1-8,1.82Z" transform="translate(-84.32 -60.13)"/>
    <path class="cls-2" d="M143.66,147.64a30.63,30.63,0,0,1-7.78,21c-.09.09-.17.19-.27.28V126.41l.27.28A30.67,30.67,0,0,1,143.66,147.64Z" transform="translate(-84.32 -60.13)"/>
    <path class="cls-2" d="M121.89,147.75a30.79,30.79,0,0,1,7.24-20.34V168.1A30.82,30.82,0,0,1,121.89,147.75Z" transform="translate(-84.32 -60.13)"/>
    <path class="cls-2" d="M144.47,120v55.48a18.94,18.94,0,0,1-8.59-2.08l-.27-.14v-51c.09-.06.18-.1.27-.15A18.94,18.94,0,0,1,144.47,120Z" transform="translate(-84.32 -60.13)"/>
    <polygon class="cls-1" points="35.34 0 44.81 13.3 44.81 127.43 35.32 127.43 35.32 0 35.34 0"/>
    <polygon class="cls-1" points="60.68 0.12 60.68 127.55 51.29 127.55 50.93 13.28 60.65 0.12 60.68 0.12"/>
  </g>
</svg>
