<svg width="2100" height="1000" viewBox="0 0 2100 1000" fill="none" xmlns="http://www.w3.org/2000/svg">
<path d="M1283.93 446.489H1315.48V593.256H1283.93V572.12C1271.86 588.918 1254.83 597.12 1232.67 597.12C1222.94 597.265 1213.3 595.347 1204.37 591.494C1195.43 587.64 1187.42 581.937 1180.85 574.762C1173.85 567.464 1168.36 558.855 1164.69 549.429C1161.02 540.003 1159.25 529.945 1159.48 519.833C1159.23 509.718 1160.99 499.653 1164.66 490.224C1168.33 480.794 1173.83 472.188 1180.85 464.904C1187.41 457.762 1195.4 452.082 1204.3 448.237C1213.2 444.391 1222.82 442.465 1232.51 442.585C1254.83 442.585 1271.94 450.827 1283.77 467.27L1283.93 446.489ZM1237.36 566.876C1243.5 567.036 1249.6 565.951 1255.31 563.687C1261.02 561.424 1266.2 558.028 1270.56 553.705C1274.92 549.242 1278.33 543.953 1280.61 538.149C1282.88 532.345 1283.97 526.144 1283.81 519.912C1284 513.73 1282.92 507.574 1280.64 501.824C1278.36 496.074 1274.93 490.85 1270.56 486.473C1261.71 477.78 1249.81 472.908 1237.4 472.908C1225 472.908 1213.09 477.78 1204.24 486.473C1199.87 490.848 1196.45 496.074 1194.18 501.826C1191.92 507.578 1190.86 513.734 1191.07 519.912C1190.89 526.14 1191.96 532.341 1194.22 538.146C1196.48 543.951 1199.89 549.242 1204.24 553.705C1208.58 558.022 1213.76 561.415 1219.45 563.678C1225.14 565.942 1231.24 567.029 1237.36 566.876V566.876Z" fill="white"/>
<path d="M1438.47 477.011H1402.07V547.476C1402.07 566.246 1414.41 565.931 1438.47 564.748V593.257C1390 599.133 1370.37 585.883 1370.37 547.476V477.011H1343.36V446.491H1370.37V405.402H1402.15V446.491H1438.47V477.011Z" fill="white"/>
<path d="M1468.94 418.652C1466.09 415.833 1464.14 412.229 1463.34 408.298C1462.54 404.367 1462.92 400.287 1464.45 396.576C1465.97 392.866 1468.56 389.692 1471.9 387.458C1475.23 385.224 1479.15 384.031 1483.16 384.031C1487.17 384.031 1491.09 385.224 1494.42 387.458C1497.76 389.692 1500.35 392.866 1501.87 396.576C1503.4 400.287 1503.78 404.367 1502.98 408.298C1502.18 412.229 1500.23 415.833 1497.38 418.652C1495.52 420.532 1493.3 422.025 1490.86 423.043C1488.42 424.062 1485.8 424.587 1483.16 424.587C1480.52 424.587 1477.9 424.062 1475.46 423.043C1473.02 422.025 1470.8 420.532 1468.94 418.652V418.652ZM1467.53 593.257V446.491H1499.07V593.257H1467.53Z" fill="white"/>
<path d="M1549.78 574.764C1542.59 567.568 1536.93 558.992 1533.15 549.552C1529.36 540.112 1527.52 530.004 1527.74 519.835C1527.47 509.66 1529.28 499.537 1533.07 490.09C1536.86 480.643 1542.55 472.073 1549.78 464.906C1557.02 457.613 1565.67 451.872 1575.2 448.035C1584.73 444.198 1594.95 442.344 1605.22 442.588C1633.73 442.588 1658.97 457.375 1670.72 480.521L1643.47 496.294C1636.69 482.178 1622.57 473.739 1604.98 473.739C1598.96 473.639 1592.98 474.761 1587.4 477.038C1581.82 479.316 1576.76 482.701 1572.53 486.988C1568.31 491.344 1565 496.494 1562.79 502.139C1560.57 507.784 1559.5 513.813 1559.64 519.875C1559.5 525.937 1560.57 531.967 1562.78 537.613C1564.99 543.259 1568.31 548.408 1572.53 552.761C1576.79 557.057 1581.89 560.44 1587.5 562.704C1593.11 564.969 1599.13 566.067 1605.18 565.931C1613.12 566.133 1620.96 564.113 1627.82 560.101C1634.67 556.088 1640.27 550.241 1643.98 543.219L1671.31 558.991C1664.82 570.78 1655.23 580.573 1643.59 587.314C1631.94 594.054 1618.67 597.487 1605.22 597.241C1594.93 597.473 1584.71 595.599 1575.18 591.734C1565.64 587.868 1557 582.093 1549.78 574.764Z" fill="white"/>
<path fill-rule="evenodd" clip-rule="evenodd" d="M576.594 474.803L619.141 569.125L682.469 532.61H682.548V459.582L576.594 474.803Z" fill="#2BBDF7"/>
<path fill-rule="evenodd" clip-rule="evenodd" d="M764.171 404.81L724.739 389.944L682.507 386.514V459.542V613.328L745.874 649.842L795.953 547.673L764.407 448.58L764.171 404.81Z" fill="#2891F9"/>
<path fill-rule="evenodd" clip-rule="evenodd" d="M760.622 386.553L745.914 423.027V649.999L809.281 613.485V386.553H760.622Z" fill="#2BBDF7"/>
<path fill-rule="evenodd" clip-rule="evenodd" d="M745.919 350.039L682.552 386.553L745.919 423.067L809.287 386.553L745.919 350.039Z" fill="#2B6DEF"/>
<path fill-rule="evenodd" clip-rule="evenodd" d="M619.181 496.056L555.774 425.157L429 386.514V613.485L492.368 650L510.506 524.408L555.774 532.61V532.57L619.181 569.085V496.056Z" fill="#2891F9"/>
<path d="M1097.26 405.402L1035.03 508.123L973.047 405.402H936.651V593.257H970.444V464.117L1026.4 556.94H1043.63L1099.62 464.432V593.257H1133.69V405.402H1097.26Z" fill="white"/>
<path fill-rule="evenodd" clip-rule="evenodd" d="M492.407 350L429 386.514L619.142 496.096L647.888 479.535L682.549 459.582L492.407 350Z" fill="#2B6DEF"/>
<path fill-rule="evenodd" clip-rule="evenodd" d="M492.408 496.057H492.368V649.96L555.775 613.446V532.61V532.571L492.408 496.057Z" fill="#2BBDF7"/>
</svg>
